HIERARCHY
ROOT Hips
{
  OFFSET 5.80788e-005 67.184 3.4734
  CHANNELS 6 Xposition Yposition Zposition Zrotation Xrotation Yrotation
  JOINT Chest
  {
    OFFSET 0 8.7983 -4.7612
    CHANNELS 3 Zrotation Xrotation Yrotation
    JOINT Chest2
    {
      OFFSET 0 8.0291 0.4195
      CHANNELS 3 Zrotation Xrotation Yrotation
      JOINT Chest3
      {
        OFFSET 0 9.9351 -2.2114
        CHANNELS 3 Zrotation Xrotation Yrotation
        JOINT Neck
        {
          OFFSET 0 22.3885 -0.4656
          CHANNELS 3 Zrotation Xrotation Yrotation
          JOINT Head
          {
            OFFSET -0.0001 12.643 3.4389
            CHANNELS 3 Zrotation Xrotation Yrotation
            End Site
            {
              OFFSET 0.0001 17.6655 0.5274
            }
          }
        }
        JOINT LeftCollar
        {
          OFFSET 2.2603 21.606 7.4023
          CHANNELS 3 Zrotation Xrotation Yrotation
          JOINT LeftShoulder
          {
            OFFSET 13.5163 -1.1332 -5.0146
            CHANNELS 3 Zrotation Xrotation Yrotation
            JOINT LeftElbow
            {
              OFFSET -0.0995 -28.05 -0.2431
              CHANNELS 3 Zrotation Xrotation Yrotation
              JOINT LeftWrist
              {
                OFFSET 0.0679 -23.3996 -0.1402
                CHANNELS 3 Zrotation Xrotation Yrotation
                JOINT LeftFinger1
                {
                  OFFSET 0.7932 -9.069 2.5189
                  CHANNELS 3 Zrotation Xrotation Yrotation
                  JOINT LeftFinger11
                  {
                    OFFSET -0.8272 -3.3923 0.5977
                    CHANNELS 3 Zrotation Xrotation Yrotation
                    JOINT LeftFinger12
                    {
                      OFFSET -0.5649 -2.3158 0.4082
                      CHANNELS 3 Zrotation Xrotation Yrotation
                      End Site
                      {
                        OFFSET -0.4919 -1.6479 0.2673
                      }
                    }
                  }
                }
                JOINT LeftFinger2
                {
                  OFFSET 0.9159 -9.2044 0.2193
                  CHANNELS 3 Zrotation Xrotation Yrotation
                  JOINT LeftFinger21
                  {
                    OFFSET 0.0117 -4.1944 -0.0248
                    CHANNELS 3 Zrotation Xrotation Yrotation
                    JOINT LeftFinger22
                    {
                      OFFSET 0.0071 -2.3249 -0.0142
                      CHANNELS 3 Zrotation Xrotation Yrotation
                      End Site
                      {
                        OFFSET -0.1475 -2.0882 0.0028
                      }
                    }
                  }
                }
                JOINT LeftFinger3
                {
                  OFFSET 0.6113 -8.7231 -2.0637
                  CHANNELS 3 Zrotation Xrotation Yrotation
                  JOINT LeftFinger31
                  {
                    OFFSET -0.1927 -3.8059 -0.2383
                    CHANNELS 3 Zrotation Xrotation Yrotation
                    JOINT LeftFinger32
                    {
                      OFFSET -0.1091 -2.1688 -0.1362
                      CHANNELS 3 Zrotation Xrotation Yrotation
                      End Site
                      {
                        OFFSET -0.2358 -1.9176 -0.0906
                      }
                    }
                  }
                }
                JOINT LeftFinger4
                {
                  OFFSET -0.6151 -8.0947 -3.5641
                  CHANNELS 3 Zrotation Xrotation Yrotation
                  JOINT LeftFinger41
                  {
                    OFFSET -0.4882 -2.341 -0.6462
                    CHANNELS 3 Zrotation Xrotation Yrotation
                    JOINT LeftFinger42
                    {
                      OFFSET -0.3575 -1.7167 -0.4742
                      CHANNELS 3 Zrotation Xrotation Yrotation
                      End Site
                      {
                        OFFSET -0.4187 -1.5237 -0.3496
                      }
                    }
                  }
                }
                JOINT LeftFinger0
                {
                  OFFSET -1.42 -1.8761 1.4223
                  CHANNELS 3 Zrotation Xrotation Yrotation
                  JOINT LeftFinger01
                  {
                    OFFSET -1.1471 -3.4929 2.6334
                    CHANNELS 3 Zrotation Xrotation Yrotation
                    JOINT LeftFinger02
                    {
                      OFFSET -0.823 -2.3 1.6571
                      CHANNELS 3 Zrotation Xrotation Yrotation
                      End Site
                      {
                        OFFSET -0.5822 -1.6914 1.1582
                      }
                    }
                  }
                }
              }
            }
          }
        }
        JOINT RightCollar
        {
          OFFSET -2.2603 21.606 7.4023
          CHANNELS 3 Zrotation Xrotation Yrotation
          JOINT RightShoulder
          {
            OFFSET -13.5187 -1.1334 -5.0155
            CHANNELS 3 Zrotation Xrotation Yrotation
            JOINT RightElbow
            {
              OFFSET 0.0994 -28.0499 -0.2431
              CHANNELS 3 Zrotation Xrotation Yrotation
              JOINT RightWrist
              {
                OFFSET -0.0679 -23.3996 -0.1402
                CHANNELS 3 Zrotation Xrotation Yrotation
                JOINT RightFinger1
                {
                  OFFSET -0.7932 -9.0691 2.5189
                  CHANNELS 3 Zrotation Xrotation Yrotation
                  JOINT RightFinger11
                  {
                    OFFSET 0.8272 -3.3923 0.5977
                    CHANNELS 3 Zrotation Xrotation Yrotation
                    JOINT RightFinger12
                    {
                      OFFSET 0.565 -2.3158 0.4082
                      CHANNELS 3 Zrotation Xrotation Yrotation
                      End Site
                      {
                        OFFSET 0.4919 -1.6479 0.2673
                      }
                    }
                  }
                }
                JOINT RightFinger2
                {
                  OFFSET -0.916 -9.2044 0.2193
                  CHANNELS 3 Zrotation Xrotation Yrotation
                  JOINT RightFinger21
                  {
                    OFFSET -0.0117 -4.1944 -0.0248
                    CHANNELS 3 Zrotation Xrotation Yrotation
                    JOINT RightFinger22
                    {
                      OFFSET -0.0071 -2.3249 -0.0142
                      CHANNELS 3 Zrotation Xrotation Yrotation
                      End Site
                      {
                        OFFSET 0.1475 -2.0882 0.0028
                      }
                    }
                  }
                }
                JOINT RightFinger3
                {
                  OFFSET -0.6113 -8.7231 -2.0637
                  CHANNELS 3 Zrotation Xrotation Yrotation
                  JOINT RightFinger31
                  {
                    OFFSET 0.1927 -3.8059 -0.2383
                    CHANNELS 3 Zrotation Xrotation Yrotation
                    JOINT RightFinger32
                    {
                      OFFSET 0.1091 -2.1688 -0.1362
                      CHANNELS 3 Zrotation Xrotation Yrotation
                      End Site
                      {
                        OFFSET 0.2358 -1.9176 -0.0906
                      }
                    }
                  }
                }
                JOINT RightFinger4
                {
                  OFFSET 0.6151 -8.0947 -3.564
                  CHANNELS 3 Zrotation Xrotation Yrotation
                  JOINT RightFinger41
                  {
                    OFFSET 0.4882 -2.341 -0.6462
                    CHANNELS 3 Zrotation Xrotation Yrotation
                    JOINT RightFinger42
                    {
                      OFFSET 0.3574 -1.7166 -0.4742
                      CHANNELS 3 Zrotation Xrotation Yrotation
                      End Site
                      {
                        OFFSET 0.4187 -1.5237 -0.3496
                      }
                    }
                  }
                }
                JOINT RightFinger0
                {
                  OFFSET 1.4199 -1.8761 1.4221
                  CHANNELS 3 Zrotation Xrotation Yrotation
                  JOINT RightFinger01
                  {
                    OFFSET 1.1472 -3.4929 2.6336
                    CHANNELS 3 Zrotation Xrotation Yrotation
                    JOINT RightFinger02
                    {
                      OFFSET 0.8229 -2.3 1.6571
                      CHANNELS 3 Zrotation Xrotation Yrotation
                      End Site
                      {
                        OFFSET 0.5822 -1.6914 1.1582
                      }
                    }
                  }
                }
              }
            }
          }
        }
      }
    }
  }
  JOINT RightHip
  {
    OFFSET -9.412 3.9771 -0.7758
    CHANNELS 3 Zrotation Xrotation Yrotation
    JOINT RightKnee
    {
      OFFSET -0.7531 -40.938 0
      CHANNELS 3 Zrotation Xrotation Yrotation
      JOINT RightAnkle
      {
        OFFSET 0 -40.1986 0
        CHANNELS 3 Zrotation Xrotation Yrotation
        JOINT RightToe
        {
          OFFSET 0 -4.4182 9.239
          CHANNELS 3 Zrotation Xrotation Yrotation
          End Site
          {
            OFFSET 0 0 6.1981
          }
        }
      }
    }
  }
  JOINT LeftHip
  {
    OFFSET 9.4119 3.9773 -0.7758
    CHANNELS 3 Zrotation Xrotation Yrotation
    JOINT LeftKnee
    {
      OFFSET 0.7532 -40.9383 0
      CHANNELS 3 Zrotation Xrotation Yrotation
      JOINT LeftAnkle
      {
        OFFSET 0 -40.1986 0
        CHANNELS 3 Zrotation Xrotation Yrotation
        JOINT LeftToe
        {
          OFFSET 0 -4.4182 9.239
          CHANNELS 3 Zrotation Xrotation Yrotation
          End Site
          {
            OFFSET 0 0 6.1981
          }
        }
      }
    }
  }
}
MOTION
Frames:	4
Frame Time:	0.0333333
23.4979 -4.2599 10.0618 105.415 -4.35275 164.598 3.71416e-005 20.7998 -7.77517e-006 1.01448e-005 41.5997 -2.85415e-006 -1.76944e-005 41.5994 -3.03653e-006 1.27742e-005 30.9973 -1.09061e-005 5.0068e-006 -35.0004 1.88181e-005 6.9005e-006 -0.00182803 -12.5014 87.1983 -78.0835 53.5103 -174.717 -32.8712 -139.23 49.4193 0.487286 -25.0423 1.59028e-015 -3.18055e-015 3.77691e-015 1.59028e-015 3.18055e-015 3.97569e-016 1.59028e-015 3.18055e-015 -0 1.59028e-015 -3.18055e-015 3.77691e-015 -0.0128105 0.00233698 8.93968e-005 -3.29067e-008 -1.78059e-006 -2.74629e-006 1.59028e-015 -3.18055e-015 3.77691e-015 -0.0160604 0.00300866 0.00086159 1.59028e-015 -4.77083e-015 -1.78906e-015 1.59028e-015 -3.18055e-015 3.77691e-015 -0.0125571 0.00312296 0.00282023 1.59028e-015 0 1.43125e-014 1.59028e-015 -3.18055e-015 3.77691e-015 1.59028e-015 3.18055e-015 3.97569e-016 1.59028e-015 3.18055e-015 -0 7.38333 3.61289 24.9013 -24.9746 -48.3315 8.83107 4.85046 0.951985 1.22943 36.7016 27.0314 1.29264 -0 -3.18055e-015 -0 -9.54166e-015 -1.59028e-015 7.95139e-015 -9.54166e-015 3.18055e-015 6.36111e-015 -0 -3.18055e-015 -0 0.0129592 0.0023272 -8.25681e-005 -4.98326e-007 -1.46291e-006 2.51445e-006 -0 -3.18055e-015 -0 0.0163393 0.0030407 -0.000860332 2.20695e-031 1.59028e-015 -7.95139e-015 -0 -3.18055e-015 -0 0.0145116 0.00366037 -0.00323326 6.36111e-015 -7.95139e-015 1.59028e-015 -0 -3.18055e-015 -0 -9.54166e-015 -1.59028e-015 7.95139e-015 -9.54166e-015 3.18055e-015 6.36111e-015 -71.2591 -27.6394 -40.0883 179.898 40.6444 173.563 -2.24303 14.0915 -4.04802 2.24974e-006 2.40153e-006 5.89737e-007 9.52386 19.3474 22.6126 -9.75523 57.2909 8.85586 1.76117 -1.21456 0.459011 2.20695e-032 1.59028e-015 -7.95139e-016 
23.4998 -4.26286 10.3458 105.415 -4.35275 164.598 3.71416e-005 20.7998 -7.77517e-006 1.01448e-005 41.5997 -2.85415e-006 -1.76944e-005 41.5994 -3.03653e-006 1.27742e-005 30.9973 -1.09061e-005 5.0068e-006 -35.0004 1.88181e-005 6.9005e-006 -0.00182803 -12.5014 87.1983 -78.0835 53.5103 -174.717 -32.8712 -139.23 49.4193 0.487286 -25.0423 1.59028e-015 -3.18055e-015 3.77691e-015 1.59028e-015 3.18055e-015 3.97569e-016 1.59028e-015 3.18055e-015 -0 1.59028e-015 -3.18055e-015 3.77691e-015 -0.0127967 0.0023202 9.22249e-005 3.18055e-015 -1.59028e-015 1.98785e-016 1.59028e-015 -3.18055e-015 3.77691e-015 -0.0160604 0.00300866 0.00086159 1.59028e-015 -4.77083e-015 -1.78906e-015 1.59028e-015 -3.18055e-015 3.77691e-015 -0.0125571 0.00312296 0.00282023 1.59028e-015 0 1.43125e-014 1.59028e-015 -3.18055e-015 3.77691e-015 1.59028e-015 3.18055e-015 3.97569e-016 1.59028e-015 3.18055e-015 -0 7.38333 3.61289 24.9013 -24.9746 -48.3315 8.83107 4.84841 0.951643 1.2295 36.6949 27.0414 1.30766 -3.18055e-015 3.18055e-015 -1.11319e-014 1.05934e-030 6.36111e-015 -9.54166e-015 3.18055e-015 1.59028e-014 -4.77083e-015 -3.18055e-015 3.18055e-015 -1.11319e-014 0.0129484 0.00230768 -8.71443e-005 3.18055e-015 -3.18055e-015 1.59028e-015 -3.18055e-015 3.18055e-015 -1.11319e-014 0.016314 0.00303328 -0.00088553 -9.54166e-015 1.59028e-015 9.54166e-015 -3.18055e-015 3.18055e-015 -1.11319e-014 0.0145674 0.00366267 -0.00326334 -4.17051e-006 -2.10315e-007 6.56907e-006 -3.18055e-015 3.18055e-015 -1.11319e-014 1.05934e-030 6.36111e-015 -9.54166e-015 3.18055e-015 1.59028e-014 -4.77083e-015 -71.1702 -27.5039 -39.8124 179.954 40.6605 173.569 -2.24073 14.0939 -4.04351 7.06225e-031 6.36111e-015 -6.36111e-015 9.94416 18.7608 22.1987 -9.97588 58.1723 9.14137 1.75061 -1.21883 0.470638 -1.64622e-006 3.22951e-006 3.74222e-007 
23.5017 -4.26582 10.6297 105.415 -4.35275 164.598 3.71416e-005 20.7998 -7.77517e-006 1.01448e-005 41.5997 -2.85415e-006 -1.76944e-005 41.5994 -3.03653e-006 1.27742e-005 30.9973 -1.09061e-005 5.0068e-006 -35.0004 1.88181e-005 6.9005e-006 -0.00182803 -12.5014 87.1983 -78.0835 53.5103 -174.717 -32.8712 -139.23 49.4193 0.487307 -25.0423 -3.18055e-015 1.59028e-015 5.1684e-015 8.61865e-007 2.27685e-006 2.86699e-006 -1.59028e-015 -3.18055e-015 -1.0138e-014 -3.18055e-015 1.59028e-015 5.1684e-015 -0.0128371 0.00232479 8.27838e-005 4.51136e-006 1.50944e-006 -3.53522e-006 -3.18055e-015 1.59028e-015 5.1684e-015 -0.0160585 0.00300909 0.000866702 7.06327e-007 1.27642e-006 -1.1024e-005 -3.18055e-015 1.59028e-015 5.1684e-015 -0.0125773 0.00312417 0.00282421 8.94065e-007 2.90851e-006 5.61354e-006 -3.18055e-015 1.59028e-015 5.1684e-015 8.61865e-007 2.27685e-006 2.86699e-006 -1.59028e-015 -3.18055e-015 -1.0138e-014 7.38333 3.61289 24.9013 -24.9746 -48.3315 8.83107 4.84662 0.951337 1.22958 36.6882 27.0515 1.32267 -6.36111e-015 7.95139e-015 6.36111e-015 -3.97252e-031 -4.77083e-015 -4.77083e-015 0 4.77083e-015 -0 -6.36111e-015 7.95139e-015 6.36111e-015 0.0129479 0.0023157 -9.25554e-005 -3.18055e-015 1.59028e-015 4.77083e-015 -6.36111e-015 7.95139e-015 6.36111e-015 0.0163615 0.00302858 -0.000872107 -2.48094e-008 9.75556e-006 -1.01951e-005 -6.36111e-015 7.95139e-015 6.36111e-015 0.0146237 0.00368495 -0.00327551 1.76556e-030 1.59028e-014 -6.36111e-015 -6.36111e-015 7.95139e-015 6.36111e-015 -3.97252e-031 -4.77083e-015 -4.77083e-015 0 4.77083e-015 -0 -71.0273 -27.4383 -39.5114 179.927 40.6536 173.577 -2.23845 14.0963 -4.03898 -3.18055e-015 -1.59028e-014 -3.18055e-015 10.3588 18.1712 21.7909 -10.2113 59.054 9.4412 1.7403 -1.22354 0.482334 -7.31103e-007 4.18664e-006 -5.61448e-008 
23.5036 -4.26878 10.9136 105.415 -4.35275 164.598 3.71416e-005 20.7998 -7.77517e-006 1.01448e-005 41.5997 -2.85415e-006 -1.76944e-005 41.5994 -3.03653e-006 1.27742e-005 30.9973 -1.09061e-005 5.0068e-006 -35.0004 1.88181e-005 6.9005e-006 -0.00182803 -12.5014 87.1983 -78.0835 53.5103 -174.717 -32.8712 -139.23 49.4193 0.487283 -25.0423 -1.59028e-015 3.18055e-015 -6.36111e-015 -3.18055e-015 -1.59028e-015 -1.68967e-014 -3.18055e-015 1.59028e-015 -9.54166e-015 -1.59028e-015 3.18055e-015 -6.36111e-015 -0.0128003 0.0023392 8.12136e-005 2.50784e-006 -9.38034e-006 3.26816e-006 -1.59028e-015 3.18055e-015 -6.36111e-015 -0.0160811 0.00299946 0.000858572 -1.59028e-015 6.36111e-015 -9.34288e-015 -1.59028e-015 3.18055e-015 -6.36111e-015 -0.0125703 0.00311659 0.00282395 3.18055e-015 -1.59028e-015 -2.5842e-015 -1.59028e-015 3.18055e-015 -6.36111e-015 -3.18055e-015 -1.59028e-015 -1.68967e-014 -3.18055e-015 1.59028e-015 -9.54166e-015 7.38333 3.61289 24.9013 -24.9746 -48.3315 8.83107 4.84513 0.951044 1.22964 36.6814 27.0616 1.33775 9.54166e-015 -1.59028e-015 -0 -1.39518e-006 4.50294e-006 4.90539e-007 -3.2885e-006 3.83061e-007 3.49394e-006 9.54166e-015 -1.59028e-015 -0 0.0129004 0.00231283 -8.87092e-005 -4.21945e-006 9.12722e-006 -1.38215e-005 9.54166e-015 -1.59028e-015 -0 0.0163396 0.00304808 -0.000880392 1.27222e-014 9.54166e-015 7.95139e-015 9.54166e-015 -1.59028e-015 -0 0.0145525 0.00368111 -0.00325347 3.31162e-006 2.801e-006 6.70149e-006 9.54166e-015 -1.59028e-015 -0 -1.39518e-006 4.50294e-006 4.90539e-007 -3.2885e-006 3.83061e-007 3.49394e-006 -70.8935 -27.3609 -39.2148 179.913 40.6503 173.584 -2.23615 14.0988 -4.03445 1.05336e-006 -5.52477e-007 -7.23305e-007 10.7679 17.5783 21.389 -10.463 59.936 9.75686 1.73026 -1.22871 0.494102 -4.20581e-006 2.14128e-007 4.41963e-006 
